<?xml version="1.0" encoding="UTF-8"?>
<svg version="1.1" xmlns="http://www.w3.org/2000/svg" width="500" height="500">
<path d="M0 0 C0.6923172 0.24147263 1.3846344 0.48294525 2.09793091 0.73173523 C3.62933037 1.26670236 5.15905826 1.80647291 6.68728638 2.35043335 C11.10443768 3.92131097 15.53535003 5.45262588 19.96484375 6.98828125 C20.97750809 7.34022049 21.99017242 7.69215973 23.03352356 8.05476379 C32.92801544 11.48124521 42.85776129 14.79926974 52.79296875 18.10546875 C54.04790603 18.52311934 54.04790603 18.52311934 55.32819557 18.94920731 C62.15723493 21.22129067 68.98747685 23.48974976 75.81794357 25.75753784 C80.75630984 27.39716858 85.69430884 29.03789523 90.63177109 30.68024635 C92.88668222 31.42973128 95.14218923 32.17740192 97.3977356 32.92497253 C98.78154393 33.38503309 100.16532436 33.84517761 101.54907227 34.30541992 C103.33547874 34.89827034 103.33547874 34.89827034 105.15797424 35.50309753 C109.028551 36.83474228 112.85878295 38.28151626 116.69140625 39.71875 C117.18640625 231.28375 117.18640625 231.28375 117.69140625 426.71875 C115.69140625 427.71875 115.69140625 427.71875 112.27197266 426.73754883 C110.77632959 426.22459872 109.28352907 425.70331886 107.79296875 425.17578125 C106.98396622 424.89634171 106.17496368 424.61690216 105.34144592 424.32899475 C103.58607272 423.72182318 101.83187021 423.11125907 100.07870483 422.4977417 C96.34459758 421.19122701 92.60489526 419.90111573 88.86534119 418.61029053 C86.94470511 417.94723266 85.02434848 417.28336486 83.10426331 416.61871338 C74.21738814 413.54478275 65.30378218 410.55521328 56.37890625 407.59375 C54.91436953 407.10707061 53.44985132 406.62033553 51.98535156 406.13354492 C49.05375296 405.15937562 46.12191041 404.18594451 43.18994141 403.21289062 C36.08386 400.85374408 28.98143558 398.48361549 21.87857056 396.11480713 C18.27203511 394.91210503 14.66530737 393.70998019 11.05859375 392.5078125 C2.26953125 389.578125 -6.51953125 386.6484375 -15.30859375 383.71875 C-15.30859375 285.70875 -15.30859375 187.69875 -15.30859375 86.71875 C-21.08954641 87.44136908 -25.36081934 88.18717785 -30.7421875 89.94921875 C-31.44097015 90.17619446 -32.13975281 90.40317017 -32.85971069 90.63702393 C-35.15767293 91.38602065 -37.45187924 92.14585856 -39.74609375 92.90625 C-41.36991945 93.43858749 -42.99386402 93.97056251 -44.61791992 94.50219727 C-58.85402518 99.17808206 -73.03576894 104.01714365 -87.19897461 108.90893555 C-97.18540611 112.35249639 -107.20573273 115.6328074 -117.30859375 118.71875 C-116.38447147 121.12823167 -116.38447147 121.12823167 -112.90625 122.03149414 C-111.39698452 122.52979115 -109.88504543 123.02003385 -108.37109375 123.50390625 C-107.57582275 123.76505722 -106.78055176 124.02620819 -105.96118164 124.29527283 C-103.41257477 125.13103048 -100.86082764 125.95664155 -98.30859375 126.78125 C-95.75689677 127.61095906 -93.20592529 128.44278269 -90.65600586 129.27793884 C-89.06682591 129.7978817 -87.4765113 130.31437099 -85.88500977 130.8271637 C-80.41980873 132.60753502 -80.41980873 132.60753502 -79.30859375 133.71875 C-79.21062935 136.63917652 -79.17867476 139.53595982 -79.18833923 142.45680237 C-79.1870576 143.84853358 -79.1870576 143.84853358 -79.18575007 145.26838058 C-79.18409242 148.40232821 -79.18962127 151.53622325 -79.19506836 154.67016602 C-79.1953502 156.90673827 -79.19519257 159.14331061 -79.19462585 161.37988281 C-79.19433774 167.47261253 -79.20023668 173.56532275 -79.20719981 179.65804791 C-79.21343108 186.01754995 -79.21403697 192.37705239 -79.21522522 198.73655701 C-79.21798492 209.41739277 -79.22424045 220.0982208 -79.2331543 230.77905273 C-79.2423277 241.78230758 -79.24940888 252.78556047 -79.25366211 263.78881836 C-79.25392483 264.46660363 -79.25418756 265.1443889 -79.25445824 265.84271313 C-79.25576324 269.24282665 -79.25702696 272.6429402 -79.25827014 276.04305375 C-79.26864362 304.26829084 -79.28633681 332.49351997 -79.30859375 360.71875 C-81.2265583 360.2451142 -83.14413153 359.76989357 -85.0615387 359.29400635 C-86.1294291 359.02953831 -87.19731951 358.76507027 -88.29757023 358.49258804 C-91.85589435 357.57809284 -95.29262543 356.50412407 -98.7734375 355.328125 C-99.43401657 355.10653214 -100.09459564 354.88493927 -100.77519226 354.65663147 C-102.9336161 353.93158466 -105.08983289 353.2002015 -107.24609375 352.46875 C-108.78352748 351.95092905 -110.32112974 351.43360826 -111.85888672 350.91674805 C-114.32408179 350.08802948 -116.78912703 349.25888492 -119.25360107 348.42802429 C-126.03039394 346.14392585 -132.81475927 343.88306913 -139.6015625 341.62890625 C-140.62883957 341.28751617 -141.65611664 340.9461261 -142.71452332 340.59439087 C-146.8025477 339.23584606 -150.89058647 337.87734795 -154.97921753 336.52062988 C-157.83166902 335.57375948 -160.68348129 334.62498731 -163.53515625 333.67578125 C-164.82482552 333.24846458 -164.82482552 333.24846458 -166.14054871 332.81251526 C-167.31935356 332.41962563 -167.31935356 332.41962563 -168.52197266 332.01879883 C-169.20836823 331.79074051 -169.89476379 331.56268219 -170.60195923 331.32771301 C-172.30859375 330.71875 -172.30859375 330.71875 -174.30859375 329.71875 C-174.30859375 306.61875 -174.30859375 283.51875 -174.30859375 259.71875 C-179.52671875 261.45125 -184.74484375 263.18375 -190.12109375 264.96875 C-191.86100586 265.54616943 -193.60091797 266.12358887 -195.39355469 266.71850586 C-203.74479283 269.49676948 -212.07847234 272.31818189 -220.38671875 275.22265625 C-221.59100777 275.64214035 -221.59100777 275.64214035 -222.81962585 276.07009888 C-226.69127783 277.41871258 -230.55959475 278.77566969 -234.4230957 280.14746094 C-235.82358349 280.63648883 -237.22421073 281.12511761 -238.625 281.61328125 C-239.84646729 282.04487549 -241.06793457 282.47646973 -242.32641602 282.92114258 C-245.30859375 283.71875 -245.30859375 283.71875 -248.30859375 282.71875 C-248.30859375 231.56875 -248.30859375 180.41875 -248.30859375 127.71875 C-243.0091544 125.36344362 -238.08224099 123.18268009 -232.66235352 121.32104492 C-231.43400284 120.89768356 -230.20565216 120.4743222 -228.94007874 120.03813171 C-227.62694977 119.59114934 -226.31358408 119.14486186 -225 118.69921875 C-224.32568373 118.46995508 -223.65136745 118.24069141 -222.95661736 118.00448036 C-219.39370799 116.79419573 -215.82885216 115.58984661 -212.26245117 114.38989258 C-208.60455629 113.15763313 -204.95471729 111.90307599 -201.30613804 110.64354992 C-198.47327403 109.67049195 -195.63470814 108.71498207 -192.79438591 107.76394081 C-191.44670103 107.30926736 -190.10120288 106.84805244 -188.7581501 106.37987328 C-176.41913116 102.08977878 -168.47579054 102.56353964 -156.36328125 106.87890625 C-155.56736572 107.15311401 -154.7714502 107.42732178 -153.95141602 107.70983887 C-151.02465326 108.72170248 -148.10447938 109.75254435 -145.18359375 110.78125 C-138.62484375 113.070625 -132.06609375 115.36 -125.30859375 117.71875 C-124.97859375 89.66875 -124.64859375 61.61875 -124.30859375 32.71875 C-105.80584423 26.36284367 -105.80584423 26.36284367 -96.78125 23.30078125 C-89.53284913 20.84100227 -82.28829739 18.37055494 -75.05029297 15.88037109 C-68.39481332 13.59082866 -61.73413335 11.31704544 -55.06832504 9.05774689 C-51.35432496 7.79830776 -47.64301292 6.5319438 -43.93707275 5.2489624 C-40.39322417 4.02239346 -36.84336558 2.81504642 -33.28840828 1.62107277 C-31.96995921 1.17461785 -30.65376276 0.72144349 -29.34014702 0.26096153 C-18.38927162 -3.57046698 -10.94352092 -3.8890505 0 0 Z " fill="#FDFEFE" transform="translate(315.30859375,30.28125)"/>
<path d="M0 0 C-0.66 0.66 -1.32 1.32 -2 2 C-2.21768018 4.79949837 -2.31142652 7.50299727 -2.31884766 10.30517578 C-2.32889328 11.16378204 -2.3389389 12.02238831 -2.34928894 12.90701294 C-2.38025026 15.7531058 -2.39719189 18.59910406 -2.4140625 21.4453125 C-2.43276375 23.41544415 -2.45233636 25.3855677 -2.4727478 27.35568237 C-2.52418529 32.54733518 -2.5637487 37.73901399 -2.60089111 42.93078613 C-2.64085811 48.22605889 -2.69198368 53.5212224 -2.7421875 58.81640625 C-2.83908425 69.21086089 -2.92344487 79.60537705 -3 90 C-3.60597771 90.06066808 -4.21195541 90.12133615 -4.83629608 90.18384266 C-6.03827007 90.30962208 -6.03827007 90.30962208 -7.26452637 90.4379425 C-8.45193043 90.55988212 -8.45193043 90.55988212 -9.66332245 90.68428516 C-13.09336683 91.14772776 -16.24766931 92.15078073 -19.53125 93.23046875 C-20.22861771 93.45744446 -20.92598541 93.68442017 -21.64448547 93.91827393 C-23.93264263 94.66591343 -26.2162821 95.42641891 -28.5 96.1875 C-30.11921521 96.71999829 -31.73860378 97.25196967 -33.3581543 97.78344727 C-47.57581116 102.46538057 -61.7422005 107.30343946 -75.890625 112.19018555 C-85.87693964 115.63385528 -95.89721193 118.91407968 -106 122 C-105.07587772 124.40948167 -105.07587772 124.40948167 -101.59765625 125.31274414 C-100.08839077 125.81104115 -98.57645168 126.30128385 -97.0625 126.78515625 C-96.267229 127.04630722 -95.47195801 127.30745819 -94.65258789 127.57652283 C-92.10398102 128.41228048 -89.55223389 129.23789155 -87 130.0625 C-84.44830302 130.89220906 -81.89733154 131.72403269 -79.34741211 132.55918884 C-77.75823216 133.0791317 -76.16791755 133.59562099 -74.57641602 134.1084137 C-69.11121498 135.88878502 -69.11121498 135.88878502 -68 137 C-67.9020356 139.92042652 -67.87008101 142.81720982 -67.87974548 145.73805237 C-67.87846385 147.12978358 -67.87846385 147.12978358 -67.87715632 148.54963058 C-67.87549867 151.68357821 -67.88102752 154.81747325 -67.88647461 157.95141602 C-67.88675645 160.18798827 -67.88659882 162.42456061 -67.8860321 164.66113281 C-67.88574399 170.75386253 -67.89164293 176.84657275 -67.89860606 182.93929791 C-67.90483733 189.29879995 -67.90544322 195.65830239 -67.90663147 202.01780701 C-67.90939117 212.69864277 -67.9156467 223.3794708 -67.92456055 234.06030273 C-67.93373395 245.06355758 -67.94081513 256.06681047 -67.94506836 267.07006836 C-67.94533108 267.74785363 -67.94559381 268.4256389 -67.94586449 269.12396313 C-67.94716949 272.52407665 -67.94843321 275.9241902 -67.94967639 279.32430375 C-67.96004987 307.54954084 -67.97774306 335.77476997 -68 364 C-69.91796455 363.5263642 -71.83553778 363.05114357 -73.75294495 362.57525635 C-74.82083535 362.31078831 -75.88872576 362.04632027 -76.98897648 361.77383804 C-80.5473006 360.85934284 -83.98403168 359.78537407 -87.46484375 358.609375 C-88.12542282 358.38778214 -88.78600189 358.16618927 -89.46659851 357.93788147 C-91.62502235 357.21283466 -93.78123914 356.4814515 -95.9375 355.75 C-97.47493373 355.23217905 -99.01253599 354.71485826 -100.55029297 354.19799805 C-103.01548804 353.36927948 -105.48053328 352.54013492 -107.94500732 351.70927429 C-114.72180019 349.42517585 -121.50616552 347.16431913 -128.29296875 344.91015625 C-129.32024582 344.56876617 -130.34752289 344.2273761 -131.40592957 343.87564087 C-135.49395395 342.51709606 -139.58199272 341.15859795 -143.67062378 339.80187988 C-146.52307527 338.85500948 -149.37488754 337.90623731 -152.2265625 336.95703125 C-153.51623177 336.52971458 -153.51623177 336.52971458 -154.83195496 336.09376526 C-156.01075981 335.70087563 -156.01075981 335.70087563 -157.21337891 335.30004883 C-157.89977448 335.07199051 -158.58617004 334.84393219 -159.29336548 334.60896301 C-161 334 -161 334 -163 333 C-163 309.9 -163 286.8 -163 263 C-168.218125 264.7325 -173.43625 266.465 -178.8125 268.25 C-180.55241211 268.82741943 -182.29232422 269.40483887 -184.08496094 269.99975586 C-192.43619908 272.77801948 -200.76987859 275.59943189 -209.078125 278.50390625 C-210.28241402 278.92339035 -210.28241402 278.92339035 -211.5110321 279.35134888 C-215.38268408 280.69996258 -219.251001 282.05691969 -223.11450195 283.42871094 C-224.51498974 283.91773883 -225.91561698 284.40636761 -227.31640625 284.89453125 C-228.53787354 285.32612549 -229.75934082 285.75771973 -231.01782227 286.20239258 C-234 287 -234 287 -237 286 C-237 234.85 -237 183.7 -237 131 C-231.70056065 128.64469362 -226.77364724 126.46393009 -221.35375977 124.60229492 C-220.12540909 124.17893356 -218.89705841 123.7555722 -217.63148499 123.31938171 C-216.31835602 122.87239934 -215.00499033 122.42611186 -213.69140625 121.98046875 C-213.01708998 121.75120508 -212.3427737 121.52194141 -211.64802361 121.28573036 C-208.08511424 120.07544573 -204.52025841 118.87109661 -200.95385742 117.67114258 C-197.29596254 116.43888313 -193.64612354 115.18432599 -189.99754429 113.92479992 C-187.16468028 112.95174195 -184.32611439 111.99623207 -181.48579216 111.04519081 C-180.13810728 110.59051736 -178.79260913 110.12930244 -177.44955635 109.66112328 C-165.11053741 105.37102878 -157.16719679 105.84478964 -145.0546875 110.16015625 C-144.25877197 110.43436401 -143.46285645 110.70857178 -142.64282227 110.99108887 C-139.71605951 112.00295248 -136.79588563 113.03379435 -133.875 114.0625 C-127.31625 116.351875 -120.7575 118.64125 -114 121 C-113.67 92.95 -113.34 64.9 -113 36 C-99.34155291 31.30816703 -85.67680306 26.63770986 -72 22 C-71.34364311 21.77734467 -70.68728622 21.55468933 -70.01103973 21.32528687 C-61.19555886 18.33508243 -52.37700539 15.35422291 -43.55247879 12.39081001 C-39.80901573 11.13360444 -36.06663225 9.87338914 -32.32672119 8.60565186 C-28.75391919 7.39478298 -25.17825537 6.19276869 -21.60030556 4.99720001 C-20.26868576 4.55060224 -18.93809814 4.10091335 -17.60863304 3.64794159 C-15.77164023 3.02265261 -13.93045117 2.40973285 -12.08911133 1.79736328 C-11.05361649 1.44876251 -10.01812164 1.10016174 -8.95124817 0.74099731 C-5.8556594 -0.03624094 -3.1784355 -0.13630833 0 0 Z " fill="#FCFDFD" transform="translate(304,27)"/>
<path d="M0 0 C-0.99 0.33 -1.98 0.66 -3 1 C-3 52.15 -3 103.3 -3 156 C-8.91135552 158.36454221 -14.68269652 160.64831861 -20.68359375 162.69921875 C-21.37393204 162.93589264 -22.06427032 163.17256653 -22.77552795 163.41641235 C-24.99518956 164.17639498 -27.21618806 164.93235578 -29.4375 165.6875 C-30.98437744 166.21442969 -32.53125241 166.74136662 -34.078125 167.26831055 C-37.20494739 168.33272309 -40.33252423 169.39488727 -43.46044922 170.45605469 C-47.05429139 171.67636003 -50.64399724 172.90823396 -54.23194885 174.14573669 C-57.31886486 175.20845888 -60.40972261 176.25960002 -63.5 177.3125 C-64.62591553 177.70332764 -65.75183105 178.09415527 -66.91186523 178.49682617 C-68.45596069 179.01853394 -68.45596069 179.01853394 -70.03125 179.55078125 C-71.37026367 180.00964722 -71.37026367 180.00964722 -72.73632812 180.4777832 C-75 181 -75 181 -78 180 C-78 128.85 -78 77.7 -78 25 C-72.66355264 22.62824562 -67.75102796 20.45766599 -62.2902832 18.61816406 C-61.04902176 18.1980304 -59.80776031 17.77789673 -58.52888489 17.34503174 C-57.20297189 16.9015326 -55.8769343 16.45840582 -54.55078125 16.015625 C-53.16549986 15.55064409 -51.78026199 15.0855335 -50.39506531 14.62030029 C-47.50914075 13.65237582 -44.6220237 12.68810918 -41.73413086 11.72607422 C-38.04258872 10.49566227 -34.35534732 9.25286182 -30.66901875 8.0069313 C-27.81684423 7.04507424 -24.96197175 6.09143558 -22.10628319 5.14006805 C-20.74541483 4.68526962 -19.38551218 4.22757036 -18.02663612 3.76685333 C-16.12781729 3.12407703 -14.22474491 2.49390814 -12.3215332 1.86425781 C-10.70345512 1.32276093 -10.70345512 1.32276093 -9.0526886 0.77032471 C-5.91236214 -0.0221148 -3.22457275 -0.14423359 0 0 Z " fill="#BCBDBD" transform="translate(145,133)"/>
<path d="M0 0 C-0.66 0.66 -1.32 1.32 -2 2 C-2.21768018 4.79949837 -2.31142652 7.50299727 -2.31884766 10.30517578 C-2.32889328 11.16378204 -2.3389389 12.02238831 -2.34928894 12.90701294 C-2.38025026 15.7531058 -2.39719189 18.59910406 -2.4140625 21.4453125 C-2.43276375 23.41544415 -2.45233636 25.3855677 -2.4727478 27.35568237 C-2.52418529 32.54733518 -2.5637487 37.73901399 -2.60089111 42.93078613 C-2.64085811 48.22605889 -2.69198368 53.5212224 -2.7421875 58.81640625 C-2.83908425 69.21086089 -2.92344487 79.60537705 -3 90 C-3.60597771 90.06066808 -4.21195541 90.12133615 -4.83629608 90.18384266 C-6.03827007 90.30962208 -6.03827007 90.30962208 -7.26452637 90.4379425 C-8.45193043 90.55988212 -8.45193043 90.55988212 -9.66332245 90.68428516 C-13.09336683 91.14772776 -16.24766931 92.15078073 -19.53125 93.23046875 C-20.22861771 93.45744446 -20.92598541 93.68442017 -21.64448547 93.91827393 C-23.93264263 94.66591343 -26.2162821 95.42641891 -28.5 96.1875 C-30.11921521 96.71999829 -31.73860378 97.25196967 -33.3581543 97.78344727 C-47.57581116 102.46538057 -61.7422005 107.30343946 -75.890625 112.19018555 C-84.20092149 115.05538807 -92.51513543 117.85714917 -100.9367218 120.38072205 C-103.51330557 121.16313224 -105.850391 121.91371597 -108.19067383 123.26342773 C-109.08629028 123.62803101 -109.08629028 123.62803101 -110 124 C-111.32 123.34 -112.64 122.68 -114 122 C-113.67 93.62 -113.34 65.24 -113 36 C-99.34155291 31.30816703 -85.67680306 26.63770986 -72 22 C-71.34364311 21.77734467 -70.68728622 21.55468933 -70.01103973 21.32528687 C-61.19555886 18.33508243 -52.37700539 15.35422291 -43.55247879 12.39081001 C-39.80901573 11.13360444 -36.06663225 9.87338914 -32.32672119 8.60565186 C-28.75391919 7.39478298 -25.17825537 6.19276869 -21.60030556 4.99720001 C-20.26868576 4.55060224 -18.93809814 4.10091335 -17.60863304 3.64794159 C-15.77164023 3.02265261 -13.93045117 2.40973285 -12.08911133 1.79736328 C-11.05361649 1.44876251 -10.01812164 1.10016174 -8.95124817 0.74099731 C-5.8556594 -0.03624094 -3.1784355 -0.13630833 0 0 Z " fill="#BCBDBE" transform="translate(304,27)"/>
<path d="M0 0 C1.98 0 3.96 0 6 0 C5.01 0.33 4.02 0.66 3 1 C3 52.15 3 103.3 3 156 C-4 159 -4 159 -7 159 C-7 158.34 -7 157.68 -7 157 C-3.53785351 154.94835763 -2.40610765 155 2 155 C2 104.18 2 53.36 2 1 C1.34 0.67 0.68 0.34 0 0 Z " fill="#A9AAAA" transform="translate(139,133)"/>
<path d="M0 0 C0 0.66 0 1.32 0 2 C-1.76641683 2.6987693 -3.53832664 3.38366583 -5.3125 4.0625 C-6.79169922 4.63677734 -6.79169922 4.63677734 -8.30078125 5.22265625 C-11 6 -11 6 -14 5 C-13.34 5 -12.68 5 -12 5 C-12 4.34 -12 3.68 -12 3 C-7.87960164 0.25306776 -4.92304458 0 0 0 Z " fill="#8B93A1" transform="translate(93,304)"/>
<path d="M0 0 C-0.33 0.99 -0.66 1.98 -1 3 C-2.794375 3.2165625 -2.794375 3.2165625 -4.625 3.4375 C-8.1005158 3.87039343 -11.54950034 4.39616256 -15 5 C-14.34 4.67 -13.68 4.34 -13 4 C-13 3.34 -13 2.68 -13 2 C-11.20873548 1.66451233 -9.41697413 1.33167645 -7.625 1 C-6.62726563 0.814375 -5.62953125 0.62875 -4.6015625 0.4375 C-2 0 -2 0 0 0 Z " fill="#505C6E" transform="translate(301,114)"/>
<path d="M0 0 C0 0.66 0 1.32 0 2 C0.66 2.33 1.32 2.66 2 3 C-0.64 3.99 -3.28 4.98 -6 6 C-6.33 4.68 -6.66 3.36 -7 2 C-2.25 0 -2.25 0 0 0 Z " fill="#A2A8B0" transform="translate(75,155)"/>
<path d="M0 0 C0 0.66 0 1.32 0 2 C-2.97 2.66 -5.94 3.32 -9 4 C-9 3.34 -9 2.68 -9 2 C-5.86501708 0.14223235 -3.62528568 -0.20140476 0 0 Z " fill="#9AA2AE" transform="translate(141,288)"/>
<path d="M0 0 C2.02045442 0.60183749 4.02111039 1.27306096 6 2 C6.33 2.66 6.66 3.32 7 4 C5.02 4.33 3.04 4.66 1 5 C0.67 3.35 0.34 1.7 0 0 Z " fill="#A4AAB0" transform="translate(125,289)"/>
</svg>
