<svg width="1399" height="262" xmlns="http://www.w3.org/2000/svg"><defs><linearGradient x1="0%" y1="50%" x2="23.438%" y2="50%" id="a"><stop stop-color="#FFF" stop-opacity="0" offset="0%"/><stop stop-color="#FFF" offset="100%"/></linearGradient><linearGradient x1="0%" y1="50%" x2="100%" y2="50%" id="b"><stop stop-color="#FFF" stop-opacity="0" offset="0%"/><stop stop-color="#FFF" offset="13.667%"/><stop stop-color="#FFF" offset="90.018%"/><stop stop-color="#FFF" stop-opacity="0" offset="100%"/></linearGradient></defs><g fill="none" fill-rule="evenodd" opacity=".04"><path stroke="#FFF" stroke-width="1.491" stroke-linecap="round" stroke-linejoin="round" d="M523.317 120.58v44.659M503.934 119.091v31.261M484.552 113.136v37.216M466.599 103.15l.062 47.202M447.278 87.83v62.522M599.355 89.318v61.034M579.973 104.205v46.147M562.081 113.136v37.216M542.699 119.091v31.261M304.147 120.58v29.772M284.765 119.091v31.261M265.383 113.136v37.216M247.491 104.205v46.147M228.109 89.318v61.034M380.186 87.83v62.522M360.803 104.205v46.147M342.912 113.136v37.216M323.53 119.091v31.261"/><path d="M623.956 55.349c-17.046 38.425-60.445 65.23-99.894 65.23-39.538 0-83.046-26.929-100.01-65.494M785.256 111.83c-13.17 5.632-27.082 8.749-40.533 8.749-39.446 0-82.843-26.803-99.89-65.223M403.296 55.348c-17.045 38.425-60.446 65.232-99.894 65.232-39.538 0-83.047-26.93-100.01-65.494" stroke="#FFF" stroke-width="1.118" stroke-linecap="round" stroke-linejoin="round"/><path d="M183.754 54.336c-16.962 38.567-60.471 65.5-100.013 65.5-30.288 0-62.369-15.804-83.17-40.536" stroke="url(#a)" stroke-width="1.118" stroke-linecap="round" stroke-linejoin="round" transform="translate(-1 .744)"/><path stroke="#FFF" stroke-width="2.982" stroke-linecap="round" stroke-linejoin="round" d="M178.162 150.352V75.92h29.819v136.955"/><path d="M202.017 46.148h-17.89c-.821 0-1.492.67-1.492 1.488V75.92c0 .82.671 1.49 1.491 1.49h17.891c.82 0 1.491-.67 1.491-1.49V47.636c0-.818-.67-1.488-1.49-1.488Zm-17.145 29.028h16.4V48.381h-16.4v26.795Z" fill="#FFF"/><path d="M193.072 16.375c-2.47 0-4.473 2-4.473 4.466v26.795h8.946V20.841a4.47 4.47 0 0 0-4.473-4.466m0 2.233a2.237 2.237 0 0 1 2.236 2.233v24.562h-4.473V20.841a2.237 2.237 0 0 1 2.237-2.233" fill="#FFF"/><path stroke="#FFF" stroke-width="2.982" stroke-linecap="round" stroke-linejoin="round" d="M398.823 150.352V75.92h29.819v74.432"/><path d="M422.678 46.148h-17.892c-.82 0-1.49.67-1.49 1.488V75.92c0 .82.67 1.49 1.49 1.49h17.892c.82 0 1.49-.67 1.49-1.49V47.636c0-.818-.67-1.488-1.49-1.488Zm-17.146 29.028h16.4V48.381h-16.4v26.795Z" fill="#FFF"/><path d="M413.732 16.375c-2.47 0-4.473 2-4.473 4.466v26.795h8.946V20.841a4.47 4.47 0 0 0-4.473-4.466m0 2.233a2.237 2.237 0 0 1 2.236 2.233v24.562h-4.472V20.841a2.237 2.237 0 0 1 2.236-2.233" fill="#FFF"/><path stroke="#FFF" stroke-width="2.982" stroke-linecap="round" stroke-linejoin="round" d="M619.483 165.238V75.92h29.819v74.432"/><path d="M643.338 46.148h-17.891c-.82 0-1.491.67-1.491 1.488V75.92c0 .82.67 1.49 1.49 1.49h17.892c.82 0 1.49-.67 1.49-1.49V47.636c0-.818-.67-1.488-1.49-1.488Zm-17.146 29.028h16.4V48.381h-16.4v26.795Z" fill="#FFF"/><path d="M634.392 16.375c-2.47 0-4.473 2-4.473 4.466v26.795h8.946V20.841a4.47 4.47 0 0 0-4.473-4.466m0 2.233a2.237 2.237 0 0 1 2.237 2.233v24.562h-4.473V20.841a2.237 2.237 0 0 1 2.236-2.233" fill="#FFF"/><path d="M1100.313 260.511V147.375c0-11.91.746-37.216 29.82-61.034M313.839 215.108h92.438M313.839 225.528h92.438M910.218 215.108h152.076M910.218 225.528h152.076M806.597 148.863v107.182M778.269 148.863v107.182" stroke="#FFF" stroke-width="1.491" stroke-linecap="round" stroke-linejoin="round"/><path d="M1399.608 204.973c-46.63-23.356-110.227-85.404-137.52-78.19-26.386 6.973-12.202 58.61-25.843 61.53-13.916 2.977-14.164-22.33-20.873-49.125-6.389-25.514-19.66-46.07-41.747-57.031V46.892c0-.819-.672-1.488-1.49-1.488h-11.928c-.822 0-1.491-.67-1.491-1.49V32.007c0-.819-.673-1.489-1.491-1.489h-4.473c-.822 0-1.491-.67-1.491-1.488V2.233c0-.819-.672-1.489-1.49-1.489h-11.929c-.821 0-1.49.67-1.49 1.49v26.795c0 .818-.673 1.488-1.491 1.488h-4.473c-.822 0-1.491.67-1.491 1.489v11.909c0 .819-.673 1.489-1.491 1.489h-11.928c-.821 0-1.49.67-1.49 1.488v35.265c-22.09 10.962-37.274 33.708-37.274 60.008v50.614c0 .818-.673 1.488-1.491 1.488h-11.928c-.821 0-1.49-.67-1.49-1.488v-41.682c0-.819-.673-1.489-1.492-1.489h-11.927c-.822 0-1.491-.67-1.491-1.489v-26.795c0-.819-.673-1.489-1.491-1.489h-79.02c-.822 0-1.491-.67-1.491-1.488v-11.91c0-.818-.673-1.488-1.491-1.488h-4.473c-.822 0-1.491-.67-1.491-1.489V91.551c0-.818-.673-1.488-1.491-1.488h-2.982c-.822 0-1.491-.67-1.491-1.489v-11.91c0-.818-.672-1.488-1.491-1.488h-14.91c-.82 0-1.49.67-1.49 1.489v11.909c0 .819-.673 1.489-1.491 1.489h-2.982c-.822 0-1.491.67-1.491 1.488v11.91c0 .818-.673 1.488-1.491 1.488h-4.473c-.821 0-1.49.67-1.49 1.489v11.909c0 .818-.673 1.488-1.492 1.488H914.2c-.821 0-1.49.67-1.49 1.489v71.455c0 .818-.673 1.488-1.492 1.488h-11.927c-.822 0-1.491-.67-1.491-1.488V121.324c0-.819-.673-1.489-1.491-1.489h-5.964c-.821 0-1.49-.67-1.49-1.488v-11.91c0-.818-.673-1.488-1.492-1.488h-23.855c-.821 0-1.49.67-1.49 1.489v11.909c0 .818-.673 1.488-1.492 1.488h-5.964c-.821 0-1.49.67-1.49 1.489v26.795c0 .82-.673 1.49-1.492 1.49h-41.746c-.822 0-1.491-.67-1.491-1.49v-26.795c0-.819-.42-2.013-.932-2.651l-10.065-12.561c-.512-.64-.93-1.833-.93-2.652V91.551c0-.818-.338-1.488-.746-1.488-.412 0-.746-.67-.746-1.489v-11.91c0-.818-.672-1.488-1.49-1.488-.822 0-1.491.67-1.491 1.489v11.909c0 .819-.337 1.489-.746 1.489-.411 0-.745.67-.745 1.488v11.91c0 .818-.42 2.01-.932 2.65l-10.066 12.562c-.511.638-.93 1.832-.93 2.651v26.795c0 .82-.672 1.49-1.49 1.49h-26.84c-.82 0-1.49.669-1.49 1.488v11.909c0 .819-.671 1.488-1.491 1.488h-11.928c-.82 0-1.49-.67-1.49-1.488v-11.91c0-.818-.672-1.488-1.492-1.488H630.92c-.819 0-1.491.67-1.491 1.489v11.909c0 .819-.671 1.488-1.491 1.488H586.19c-.818 0-1.49.67-1.49 1.49v26.795c0 .818-.672 1.488-1.492 1.488h-11.927c-.819 0-1.491-.67-1.491-1.488v-26.796c0-.819-.671-1.489-1.491-1.489h-56.656c-.819 0-1.491.67-1.491 1.49v28.283c0 6.449-3.24 19.003-18.637 17.864-13.418-.993-38.516-31.262-51.934-29.277-11.477 1.698-11.928 23.322-24.352 23.322-9.94 0-9.505-10.422-9.505-10.422.035-.818.062-2.157.062-2.975v-11.91c0-.818-.671-1.488-1.491-1.488H347.64c-.82 0-1.49-.67-1.49-1.489v-11.909c0-.819-.673-1.489-1.492-1.489h-11.927c-.82 0-1.491.67-1.491 1.49v11.908c0 .819-.673 1.489-1.491 1.489H317.82c-.82 0-1.49.67-1.49 1.488v11.91c0 .818-.673 1.488-1.492 1.488h-11.927c-.82 0-1.394-.662-1.275-1.474 0 0 1.638-11.155-4.69-13.412-10.436-3.722-55.32 19.255-83.492 31.757-26.837 11.909-52.681 27.788-65.602 17.864-14.464-11.109-17.891-68.478-43.735-80.387-22.108-10.188-62.423 7.25-102.627 26.672" stroke="url(#b)" stroke-width="2.982" stroke-linecap="round" stroke-linejoin="round" transform="translate(-1 .744)"/></g></svg>
